HIERARCHY 
ROOT hip
{
	OFFSET 0.000000 0.000000 0.000000
	CHANNELS 6 Xposition Yposition Zposition Xrotation Zrotation Yrotation 
	JOINT abdomen
	{
		OFFSET 0.000000 3.422050 0.000000
		CHANNELS 3 Xrotation Zrotation Yrotation 
		JOINT chest
		{
			OFFSET 0.000000 8.486693 -0.684411
			CHANNELS 3 Xrotation Zrotation Yrotation 
			JOINT neck
			{
				OFFSET 0.000000 10.266162 -0.273764
				CHANNELS 3 Xrotation Zrotation Yrotation 
				JOINT head
				{
					OFFSET 0.000000 3.148285 0.000000
					CHANNELS 3 Xrotation Zrotation Yrotation 
					End Site
					{
						OFFSET 0.000000 3.148289 0.000000
					}
				}
			}
			JOINT lCollar
			{
				OFFSET 3.422053 6.707223 -0.821293
				CHANNELS 3 Yrotation Zrotation Xrotation 
				JOINT lShldr
				{
					OFFSET 3.285171 0.000000 0.000000
					CHANNELS 3 Zrotation Yrotation Xrotation 
					JOINT lForeArm
					{
						OFFSET 10.129278 0.000000 0.000000
						CHANNELS 3 Yrotation Zrotation Xrotation 
						JOINT lHand
						{
							OFFSET 8.486692 0.000000 0.000000
							CHANNELS 3 Zrotation Yrotation Xrotation 
							End Site
							{
								OFFSET 4.106464 0.000000 0.000000
							}
						}
					}
				}
			}
			JOINT rCollar
			{
				OFFSET -3.558935 6.707223 -0.821293
				CHANNELS 3 Yrotation Zrotation Xrotation 
				JOINT rShldr
				{
					OFFSET -3.148289 0.000000 0.000000
					CHANNELS 3 Zrotation Yrotation Xrotation 
					JOINT rForeArm
					{
						OFFSET -10.266159 0.000000 0.000000
						CHANNELS 3 Yrotation Zrotation Xrotation 
						JOINT rHand
						{
							OFFSET -8.349810 0.000000 0.000000
							CHANNELS 3 Zrotation Yrotation Xrotation 
							End Site
							{
								OFFSET -4.106464 0.000000 0.000000
							}
						}
					}
				}
			}
		}
	}
	JOINT lThigh
	{
		OFFSET 5.338403 -1.642589 1.368821
		CHANNELS 3 Xrotation Zrotation Yrotation 
		JOINT lShin
		{
			OFFSET -2.053232 -20.121670 0.000000
			CHANNELS 3 Xrotation Zrotation Yrotation 
			JOINT lFoot
			{
				OFFSET 0.000000 -19.300380 -1.231939
				CHANNELS 3 Xrotation Yrotation Zrotation 
				End Site
				{
					OFFSET 0.000000 -2.463878 4.653993
				}
			}
		}
	}
	JOINT rThigh
	{
		OFFSET -5.338403 -1.642589 1.368821
		CHANNELS 3 Xrotation Zrotation Yrotation 
		JOINT rShin
		{
			OFFSET 2.053232 -20.121670 0.000000
			CHANNELS 3 Xrotation Zrotation Yrotation 
			JOINT rFoot
			{
				OFFSET 0.000000 -19.300380 -1.231939
				CHANNELS 3 Xrotation Yrotation Zrotation 
				End Site
				{
					OFFSET 0.000000 -2.463878 4.653993
				}
			}
		}
	}
}
MOTION
Frames: 18
Frame Time: 0.055620
0.000000 43.528500 0.000000 0.000000 0.000000 0.000000 0.000000 0.000000 0.000000 0.000000 0.000000 0.000000 0.000000 0.000000 0.000000 0.000000 0.000000 0.000000 0.000000 0.000000 0.000000 0.000000 0.000000 0.000000 0.000000 0.000000 0.000000 0.000000 0.000000 0.000000 0.000000 0.000000 0.000000 0.000000 0.000000 0.000000 0.000000 0.000000 0.000000 0.000000 0.000000 0.000000 0.000000 0.000000 0.000000 0.000000 0.000000 0.000000 0.000000 0.000000 0.000000 0.000000 0.000000 0.000000 0.000000 0.000000 0.000000 0.000000 0.000000 0.000000 
0.123152 5.347977 33.777050 87.911118 -0.050535 0.755273 -0.285527 -0.681459 -0.503646 0.199362 -0.539652 -0.376885 -16.011530 -5.719018 -10.362961 0.000000 0.000000 0.000000 -5.857238 -11.582366 2.790032 47.804497 -65.914238 -76.299911 -23.056297 0.385337 0.026844 56.889435 -0.051312 -0.033762 5.775406 11.534919 2.737133 -47.539978 65.697159 -76.044594 22.760286 -0.501310 0.034911 -56.560951 0.272750 -0.375077 -72.975525 22.571371 -14.841994 79.925117 -2.486573 0.067758 40.010181 1.856628 4.989475 -72.931412 -22.570688 14.841851 79.622223 2.446059 0.083315 40.211132 -1.766548 -4.940300 
0.123152 5.347977 33.777050 87.911423 -0.050537 0.755273 -0.285308 -0.681458 -0.503647 0.200016 -0.539432 -0.376669 -16.011530 -5.719018 -10.362961 0.000000 0.000000 0.000000 -5.857460 -11.582371 2.790009 47.805096 -65.914368 -76.300499 -23.056520 0.385809 0.026718 56.889935 -0.051312 -0.033762 5.775653 11.534693 2.736899 -47.540199 65.697052 -76.044983 22.760286 -0.501996 0.034827 -56.560955 0.273120 -0.375772 -72.975525 22.571371 -14.841994 79.923973 -2.486853 0.068118 40.011105 1.856948 4.989591 -72.931328 -22.570517 14.841694 79.620804 2.446200 0.083117 40.212296 -1.766598 -4.940282 
0.123152 5.347977 33.777050 87.911720 -0.050539 0.755273 -0.285090 -0.681457 -0.503648 0.200671 -0.539211 -0.376453 -16.011530 -5.719018 -10.362961 0.000000 0.000000 0.000000 -5.857683 -11.582377 2.789987 47.805695 -65.914505 -76.301094 -23.056744 0.386281 0.026592 56.890430 -0.051312 -0.033762 5.775901 11.534469 2.736665 -47.540421 65.696938 -76.045372 22.760286 -0.502682 0.034742 -56.560959 0.273490 -0.376468 -72.975525 22.571371 -14.841994 79.922829 -2.487134 0.068478 40.012024 1.857269 4.989707 -72.931229 -22.570345 14.841537 79.619370 2.446341 0.082919 40.213459 -1.766648 -4.940264 
0.087108 5.227829 33.692947 87.912025 -0.050541 0.755273 -0.284871 -0.681456 -0.503649 0.201325 -0.538991 -0.376237 -16.011530 -5.719018 -10.362961 0.000000 0.000000 0.000000 -5.857905 -11.582382 2.789964 47.806290 -65.914642 -76.301682 -23.056967 0.386753 0.026465 56.890926 -0.051311 -0.033762 5.776148 11.534245 2.736432 -47.540642 65.696831 -76.045769 22.760286 -0.503368 0.034657 -56.560963 0.273860 -0.377163 -72.975525 22.571371 -14.841994 79.921684 -2.487414 0.068838 40.012943 1.857590 4.989823 -72.931145 -22.570171 14.841381 79.617943 2.446482 0.082720 40.214622 -1.766698 -4.940246 
0.071088 5.179770 33.660908 87.912331 -0.050543 0.755273 -0.284652 -0.681455 -0.503650 0.201979 -0.538770 -0.376021 -16.011530 -5.719018 -10.362961 0.000000 0.000000 0.000000 -5.858127 -11.582387 2.789942 47.806885 -65.914772 -76.302269 -23.057188 0.387225 0.026339 56.891422 -0.051311 -0.033763 5.776396 11.534019 2.736197 -47.540863 65.696724 -76.046158 22.760288 -0.504054 0.034572 -56.560966 0.274231 -0.377859 -72.975525 22.571371 -14.841994 79.920540 -2.487694 0.069198 40.013866 1.857910 4.989940 -72.931046 -22.569998 14.841225 79.616524 2.446623 0.082522 40.215786 -1.766749 -4.940228 
0.055069 5.131711 33.628868 87.912636 -0.050545 0.755273 -0.284434 -0.681453 -0.503652 0.202633 -0.538550 -0.375805 -16.011530 -5.719018 -10.362961 0.000000 0.000000 0.000000 -5.858349 -11.582393 2.789919 47.807484 -65.914902 -76.302864 -23.057413 0.387697 0.026213 56.891922 -0.051311 -0.033763 5.776644 11.533794 2.735964 -47.541080 65.696609 -76.046547 22.760288 -0.504740 0.034487 -56.560970 0.274601 -0.378555 -72.975525 22.571371 -14.841994 79.919403 -2.487974 0.069558 40.014782 1.858231 4.990056 -72.930954 -22.569824 14.841069 79.615097 2.446764 0.082323 40.216949 -1.766799 -4.940210 
0.039050 5.083652 33.596828 87.912933 -0.050547 0.755272 -0.284215 -0.681452 -0.503653 0.203288 -0.538329 -0.375589 -16.011530 -5.719018 -10.362961 0.000000 0.000000 0.000000 -5.858572 -11.582397 2.789897 47.808079 -65.915039 -76.303452 -23.057636 0.388169 0.026087 56.892422 -0.051311 -0.033763 5.776891 11.533569 2.735730 -47.541302 65.696503 -76.046936 22.760288 -0.505425 0.034402 -56.560978 0.274971 -0.379250 -72.975525 22.571371 -14.841994 79.918259 -2.488254 0.069918 40.015701 1.858552 4.990171 -72.930862 -22.569653 14.840912 79.613678 2.446905 0.082125 40.218113 -1.766849 -4.940192 
0.009013 4.981529 33.524742 87.913246 -0.050549 0.755272 -0.283996 -0.681451 -0.503654 0.203942 -0.538109 -0.375373 -16.011530 -5.719018 -10.362961 0.000000 0.000000 0.000000 -5.858794 -11.582403 2.789874 47.808678 -65.915169 -76.304039 -23.057859 0.388641 0.025961 56.892914 -0.051311 -0.033763 5.777139 11.533346 2.735496 -47.541527 65.696396 -76.047325 22.760288 -0.506111 0.034317 -56.560982 0.275342 -0.379946 -72.975525 22.571371 -14.841994 79.917114 -2.488534 0.070278 40.016621 1.858872 4.990287 -72.930763 -22.569479 14.840755 79.612251 2.447046 0.081927 40.219276 -1.766899 -4.940175 
-0.003003 4.942480 33.497711 87.913544 -0.050551 0.755272 -0.283778 -0.681450 -0.503655 0.204596 -0.537889 -0.375157 -16.011530 -5.719018 -10.362961 0.000000 0.000000 0.000000 -5.859016 -11.582409 2.789852 47.809277 -65.915306 -76.304634 -23.058083 0.389113 0.025835 56.893406 -0.051311 -0.033764 5.777387 11.533120 2.735262 -47.541744 65.696281 -76.047714 22.760288 -0.506797 0.034232 -56.560982 0.275712 -0.380642 -72.975525 22.571371 -14.841994 79.915970 -2.488814 0.070638 40.017544 1.859193 4.990404 -72.930679 -22.569307 14.840598 79.610825 2.447187 0.081728 40.220444 -1.766949 -4.940157 
-0.015018 4.903431 33.470676 87.913849 -0.050553 0.755272 -0.283559 -0.681449 -0.503656 0.205251 -0.537668 -0.374941 -16.011530 -5.719018 -10.362961 0.000000 0.000000 0.000000 -5.859238 -11.582414 2.789829 47.809872 -65.915443 -76.305222 -23.058306 0.389585 0.025709 56.893906 -0.051311 -0.033764 5.777634 11.532895 2.735028 -47.541965 65.696167 -76.048103 22.760288 -0.507483 0.034148 -56.560989 0.276082 -0.381337 -72.975525 22.571371 -14.841994 79.914825 -2.489094 0.070998 40.018463 1.859514 4.990520 -72.930580 -22.569132 14.840443 79.609398 2.447328 0.081530 40.221603 -1.767000 -4.940139 
-0.015018 4.903431 33.470676 87.914154 -0.050555 0.755272 -0.283340 -0.681448 -0.503658 0.205905 -0.537448 -0.374725 -16.011530 -5.719018 -10.362961 0.000000 0.000000 0.000000 -5.859460 -11.582419 2.789807 47.810467 -65.915573 -76.305809 -23.058527 0.390057 0.025583 56.894402 -0.051310 -0.033764 5.777882 11.532671 2.734794 -47.542183 65.696060 -76.048492 22.760288 -0.508169 0.034063 -56.560993 0.276453 -0.382033 -72.975525 22.571371 -14.841994 79.913681 -2.489375 0.071358 40.019386 1.859834 4.990636 -72.930496 -22.568962 14.840285 79.607971 2.447469 0.081332 40.222771 -1.767050 -4.940121 
-0.015018 4.903431 33.470676 87.914459 -0.050557 0.755272 -0.283122 -0.681447 -0.503659 0.206559 -0.537227 -0.374509 -16.011530 -5.719018 -10.362961 0.000000 0.000000 0.000000 -5.859683 -11.582425 2.789784 47.811066 -65.915710 -76.306404 -23.058752 0.390529 0.025457 56.894897 -0.051310 -0.033764 5.778130 11.532447 2.734560 -47.542408 65.695953 -76.048882 22.760288 -0.508855 0.033978 -56.560997 0.276823 -0.382729 -72.975525 22.571371 -14.841994 79.912537 -2.489655 0.071718 40.020306 1.860155 4.990751 -72.930397 -22.568789 14.840128 79.606552 2.447610 0.081133 40.223934 -1.767100 -4.940103 
0.003004 4.963505 33.512726 87.914757 -0.050559 0.755272 -0.282903 -0.681446 -0.503660 0.207213 -0.537007 -0.374293 -16.011530 -5.719018 -10.362961 0.000000 0.000000 0.000000 -5.859904 -11.582430 2.789762 47.811665 -65.915848 -76.306992 -23.058975 0.391001 0.025331 56.895393 -0.051310 -0.033764 5.778377 11.532221 2.734326 -47.542629 65.695839 -76.049271 22.760288 -0.509541 0.033893 -56.560997 0.277193 -0.383424 -72.975525 22.571371 -14.841994 79.911400 -2.489935 0.072078 40.021225 1.860475 4.990868 -72.930305 -22.568615 14.839972 79.605125 2.447751 0.080935 40.225094 -1.767150 -4.940085 
0.021026 5.023579 33.554779 87.915062 -0.050561 0.755271 -0.282684 -0.681445 -0.503661 0.207868 -0.536786 -0.374077 -16.011530 -5.719018 -10.362961 0.000000 0.000000 0.000000 -5.860127 -11.582436 2.789739 47.812256 -65.915985 -76.307579 -23.059196 0.391473 0.025205 56.895893 -0.051310 -0.033765 5.778625 11.531996 2.734092 -47.542847 65.695732 -76.049660 22.760290 -0.510227 0.033808 -56.561005 0.277564 -0.384120 -72.975525 22.571371 -14.841994 79.910248 -2.490215 0.072438 40.022144 1.860796 4.990983 -72.930214 -22.568441 14.839815 79.603706 2.447892 0.080737 40.226261 -1.767200 -4.940068 
0.060075 5.149734 33.641884 87.915367 -0.050563 0.755271 -0.282466 -0.681444 -0.503662 0.208522 -0.536566 -0.373861 -16.011530 -5.719018 -10.362961 0.000000 0.000000 0.000000 -5.860349 -11.582440 2.789716 47.812855 -65.916115 -76.308174 -23.059422 0.391945 0.025079 56.896393 -0.051310 -0.033765 5.778872 11.531773 2.733858 -47.543068 65.695625 -76.050049 22.760290 -0.510913 0.033723 -56.561008 0.277934 -0.384815 -72.975525 22.571371 -14.841994 79.909111 -2.490495 0.072798 40.023060 1.861117 4.991100 -72.930115 -22.568268 14.839661 79.602280 2.448033 0.080538 40.227425 -1.767251 -4.940049 
0.099123 5.275890 33.728992 87.915672 -0.050565 0.755271 -0.282247 -0.681443 -0.503664 0.209176 -0.536346 -0.373645 -16.011530 -5.719018 -10.362961 0.000000 0.000000 0.000000 -5.860571 -11.582446 2.789694 47.813454 -65.916252 -76.308762 -23.059645 0.392417 0.024953 56.896889 -0.051310 -0.033765 5.779120 11.531549 2.733624 -47.543289 65.695518 -76.050438 22.760290 -0.511599 0.033638 -56.561016 0.278304 -0.385511 -72.975525 22.571371 -14.841994 79.907959 -2.490775 0.073158 40.023983 1.861437 4.991216 -72.930031 -22.568096 14.839503 79.600853 2.448174 0.080340 40.228588 -1.767301 -4.940032 
0.129160 5.359993 33.783058 87.915977 -0.050567 0.755271 -0.282028 -0.681442 -0.503665 0.209831 -0.536125 -0.373429 -16.011530 -5.719018 -10.362961 0.000000 0.000000 0.000000 -5.860794 -11.582452 2.789671 47.814049 -65.916389 -76.309349 -23.059866 0.392889 0.024827 56.897385 -0.051310 -0.033765 5.779367 11.531323 2.733390 -47.543510 65.695412 -76.050835 22.760290 -0.512285 0.033553 -56.561020 0.278675 -0.386207 -72.975525 22.571371 -14.841994 79.906822 -2.491055 0.073518 40.024902 1.861758 4.991332 -72.929932 -22.567924 14.839346 79.599426 2.448315 0.080141 40.229752 -1.767351 -4.940014 
